Normalized EMG Linear Envelopes
nRows=118
nColumns=4

endheader
time	 med_gas_r	  soleus_r	 tib_ant_r	
3.07762	  0.070791	  0.040981	  0.012916	
3.14919	  0.064695	  0.039558	  0.012722	
3.22077	  0.062721	  0.038086	  0.013036	
3.29234	  0.065125	  0.037066	  0.013614	
3.36391	  0.068496	  0.036612	  0.013830	
3.43548	  0.069497	  0.035968	  0.013597	
3.50706	  0.067286	  0.034887	  0.013386	
3.57863	  0.062884	  0.034373	  0.013474	
3.6502	  0.058136	  0.035217	  0.013609	
3.72177	  0.055068	  0.036863	  0.013470	
3.79335	  0.054824	  0.038396	  0.013205	
3.86492	  0.056844	  0.039639	  0.013144	
3.93649	  0.059494	  0.040619	  0.013339	
4.00806	  0.061614	  0.040851	  0.013743	
4.07964	  0.063220	  0.040073	  0.014344	
4.15121	  0.065072	  0.038947	  0.014955	
4.22278	  0.067678	  0.038249	  0.015278	
4.29435	  0.070230	  0.038170	  0.015144	
4.36593	  0.071158	  0.038730	  0.014578	
4.4375	  0.069859	  0.039790	  0.013838	
4.50907	  0.067078	  0.040576	  0.013324	
4.58065	  0.064358	  0.040079	  0.013213	
4.65222	  0.063170	  0.038187	  0.013292	
4.72379	  0.063246	  0.036087	  0.013260	
4.79536	  0.062919	  0.035060	  0.013020	
4.86694	  0.062144	  0.035277	  0.012667	
4.93851	  0.063087	  0.036531	  0.012412	
5.01008	  0.066818	  0.039060	  0.012479	
5.08165	  0.071016	  0.042269	  0.012992	
5.15323	  0.072214	  0.044049	  0.014157	
5.2248	  0.069796	  0.042910	  0.016463	
5.29637	  0.065826	  0.039282	  0.020317	
5.36794	  0.061892	  0.034712	  0.025873	
5.43952	  0.059774	  0.032428	  0.033450	
5.51109	  0.065533	  0.038824	  0.042747	
5.58266	  0.092351	  0.063279	  0.051812	
5.65423	  0.159529	  0.114793	  0.059309	
5.72581	  0.280733	  0.192931	  0.067151	
5.79738	  0.443029	  0.281747	  0.077996	
5.86895	  0.601670	  0.359880	  0.091308	
5.94052	  0.705285	  0.415023	  0.103401	
6.0121	  0.729238	  0.446575	  0.110075	
6.08367	  0.692969	  0.462171	  0.110206	
6.15524	  0.651954	  0.472475	  0.107904	
6.22681	  0.656734	  0.485836	  0.109364	
6.29839	  0.706640	  0.502639	  0.116506	
6.36996	  0.753995	  0.509209	  0.124103	
6.44153	  0.755706	  0.489198	  0.124460	
6.5131	  0.712685	  0.445885	  0.115362	
6.58468	  0.661148	  0.401922	  0.102333	
6.65625	  0.633659	  0.380514	  0.093261	
6.72782	  0.636159	  0.390381	  0.092011	
6.7994	  0.657917	  0.421952	  0.097468	
6.87097	  0.689118	  0.457213	  0.106277	
6.94254	  0.720940	  0.482092	  0.113882	
7.01411	  0.739932	  0.490215	  0.115658	
7.08569	  0.739561	  0.484065	  0.111116	
7.15726	  0.728298	  0.472223	  0.105048	
7.22883	  0.719051	  0.461135	  0.102769	
7.3004	  0.720058	  0.454558	  0.105859	
7.37198	  0.729542	  0.456246	  0.111421	
7.44355	  0.735021	  0.463606	  0.114437	
7.51512	  0.725159	  0.465506	  0.112037	
7.58669	  0.701395	  0.454863	  0.105436	
7.65827	  0.674534	  0.438053	  0.098442	
7.72984	  0.648518	  0.425288	  0.094619	
7.80141	  0.615636	  0.420328	  0.094369	
7.87298	  0.575937	  0.423839	  0.095018	
7.94456	  0.548600	  0.432570	  0.094347	
8.01613	  0.554638	  0.439235	  0.092449	
8.0877	  0.597945	  0.445254	  0.091112	
8.15927	  0.661583	  0.458399	  0.092683	
8.23085	  0.712329	  0.475924	  0.097154	
8.30242	  0.721425	  0.487823	  0.101300	
8.37399	  0.690348	  0.491505	  0.103178	
8.44556	  0.641815	  0.490871	  0.103930	
8.51714	  0.593178	  0.484413	  0.103899	
8.58871	  0.557226	  0.463394	  0.101910	
8.66028	  0.549588	  0.428165	  0.097968	
8.73185	  0.573399	  0.399690	  0.093232	
8.80343	  0.609834	  0.401091	  0.089253	
8.875	  0.639032	  0.431977	  0.088154	
8.94657	  0.656745	  0.470830	  0.091263	
9.01815	  0.663861	  0.496133	  0.097603	
9.08972	  0.663442	  0.501689	  0.104774	
9.16129	  0.666413	  0.498000	  0.111105	
9.23286	  0.679229	  0.500980	  0.116180	
9.30444	  0.696236	  0.517910	  0.119436	
9.37601	  0.707678	  0.540393	  0.119756	
9.44758	  0.701392	  0.546673	  0.116634	
9.51915	  0.669057	  0.518350	  0.110855	
9.59073	  0.621965	  0.462697	  0.104242	
9.6623	  0.582312	  0.408166	  0.098330	
9.73387	  0.558460	  0.374123	  0.093162	
9.80544	  0.545619	  0.359005	  0.088520	
9.87702	  0.541126	  0.355288	  0.085580	
9.94859	  0.547985	  0.360104	  0.085745	
10.0202	  0.568799	  0.373227	  0.088417	
10.0917	  0.597531	  0.392037	  0.090868	
10.1633	  0.615372	  0.405744	  0.089795	
10.2349	  0.593685	  0.395090	  0.082842	
10.3065	  0.509642	  0.344276	  0.069902	
10.378	  0.372822	  0.257699	  0.054113	
10.4496	  0.229518	  0.163019	  0.041150	
10.5212	  0.128140	  0.091960	  0.035986	
10.5927	  0.085515	  0.058084	  0.039826	
10.6643	  0.086787	  0.054130	  0.050010	
10.7359	  0.104158	  0.063638	  0.061229	
10.8075	  0.115176	  0.072134	  0.067333	
10.879	  0.114117	  0.073639	  0.066010	
10.9506	  0.109209	  0.070617	  0.061456	
11.0222	  0.108829	  0.067869	  0.059027	
11.0937	  0.113473	  0.067806	  0.059375	
11.1653	  0.120220	  0.071230	  0.059871	
11.2369	  0.127628	  0.077868	  0.059161	
11.3085	  0.133538	  0.084771	  0.059376	
11.38	  0.134385	  0.088329	  0.063818	
11.4516	  0.130101	  0.088428	  0.072438	
